# xmcd CD database file
#
# Track frame offsets:
#	150
#	14202
#	28267
#	40832
#	56263
#	73996
#	86038
#	100979
#	117469
#	135156
#	145711
#
# Disc length: 2236 seconds
#
# Revision: 3
# Processed by: cddbd v1.5.2PL0 Copyright (c) Steve Scherf et al.
# Submitted via: CDex 1.51
#
DISCID=9c08ba0b
DTITLE=Jutta Thiemrodt - jazzable and more
DYEAR=2011
DGENRE=Jazz
TTITLE0=JuttaThiemrodt - My Funny Valentine
TTITLE1=JuttaThiemrodt - My Baby Just Cares For Me
TTITLE2=JuttaThiemrodt - Georgia On My Mind
TTITLE3=JuttaThiemrodt - Blueberry Hill
TTITLE4=JuttaThiemrodt - Cry me A River
TTITLE5=JuttaThiemrodt - Lullaby Of Birdland
TTITLE6=JuttaThiemrodt - Fever
TTITLE7=JuttaThiemrodt - Sorry Seems To Be
TTITLE8=JuttaThiemrodt - Unchain My Heart
TTITLE9=JuttaThiemrodt - Wonderful World
TTITLE10=JuttaThiemrodt - Black Velvet
EXTD=YEAR: 2011
EXTT0=
EXTT1=
EXTT2=
EXTT3=
EXTT4=
EXTT5=
EXTT6=
EXTT7=
EXTT8=
EXTT9=
EXTT10=
PLAYORDER=
